<?xml version="1.0" encoding="UTF-8" standalone="no"?>
<!DOCTYPE svg PUBLIC "-//W3C//DTD SVG 1.1//EN"
 "http://www.w3.org/Graphics/SVG/1.1/DTD/svg11.dtd">
<!-- Generated by graphviz version 5.0.1 (20220820.1526)
 -->
<!-- Title: G Pages: 1 -->
<svg width="2204pt" height="476pt"
 viewBox="0.00 0.00 2203.50 476.00" xmlns="http://www.w3.org/2000/svg" xmlns:xlink="http://www.w3.org/1999/xlink">
<g id="graph0" class="graph" transform="scale(1 1) rotate(0) translate(4 472)">
<title>G</title>
<polygon fill="white" stroke="none" points="-4,4 -4,-472 2199.5,-472 2199.5,4 -4,4"/>
<!-- 26_Global &#45;&gt;  -->
<g id="node1" class="node">
<title>26_Global &#45;&gt; </title>
<polygon fill="white" stroke="black" points="983.5,-468 888.5,-468 888.5,-432 983.5,-432 983.5,-468"/>
<text text-anchor="middle" x="936" y="-446.3" font-family="Times New Roman,serif" font-size="14.00">26_Global &#45;&gt; </text>
</g>
<!-- 27_inicio &#45;&gt; inicio -->
<g id="node2" class="node">
<title>27_inicio &#45;&gt; inicio</title>
<polygon fill="white" stroke="black" points="858,-396 740,-396 740,-360 858,-360 858,-396"/>
<text text-anchor="middle" x="799" y="-374.3" font-family="Times New Roman,serif" font-size="14.00">27_inicio &#45;&gt; inicio</text>
</g>
<!-- 26_Global &#45;&gt; &#45;&gt;27_inicio &#45;&gt; inicio -->
<g id="edge1" class="edge">
<title>26_Global &#45;&gt; &#45;&gt;27_inicio &#45;&gt; inicio</title>
<path fill="none" stroke="black" d="M902.49,-431.88C884.16,-422.51 861.26,-410.81 841.67,-400.8"/>
<polygon fill="black" stroke="black" points="843.14,-397.62 832.64,-396.19 839.96,-403.86 843.14,-397.62"/>
</g>
<!-- 25_instruccion &#45;&gt;  -->
<g id="node3" class="node">
<title>25_instruccion &#45;&gt; </title>
<polygon fill="white" stroke="black" points="995.5,-396 876.5,-396 876.5,-360 995.5,-360 995.5,-396"/>
<text text-anchor="middle" x="936" y="-374.3" font-family="Times New Roman,serif" font-size="14.00">25_instruccion &#45;&gt; </text>
</g>
<!-- 26_Global &#45;&gt; &#45;&gt;25_instruccion &#45;&gt;  -->
<g id="edge2" class="edge">
<title>26_Global &#45;&gt; &#45;&gt;25_instruccion &#45;&gt; </title>
<path fill="none" stroke="black" d="M936,-431.7C936,-423.98 936,-414.71 936,-406.11"/>
<polygon fill="black" stroke="black" points="939.5,-406.1 936,-396.1 932.5,-406.1 939.5,-406.1"/>
</g>
<!-- 28_final &#45;&gt; fin -->
<g id="node28" class="node">
<title>28_final &#45;&gt; fin</title>
<polygon fill="white" stroke="black" points="1108.5,-396 1013.5,-396 1013.5,-360 1108.5,-360 1108.5,-396"/>
<text text-anchor="middle" x="1061" y="-374.3" font-family="Times New Roman,serif" font-size="14.00">28_final &#45;&gt; fin</text>
</g>
<!-- 26_Global &#45;&gt; &#45;&gt;28_final &#45;&gt; fin -->
<g id="edge27" class="edge">
<title>26_Global &#45;&gt; &#45;&gt;28_final &#45;&gt; fin</title>
<path fill="none" stroke="black" d="M966.58,-431.88C983.07,-422.64 1003.62,-411.13 1021.34,-401.21"/>
<polygon fill="black" stroke="black" points="1023.29,-404.13 1030.3,-396.19 1019.87,-398.02 1023.29,-404.13"/>
</g>
<!-- 1_Declaracion &#45;&gt;  -->
<g id="node4" class="node">
<title>1_Declaracion &#45;&gt; </title>
<polygon fill="white" stroke="black" points="797.5,-324 680.5,-324 680.5,-288 797.5,-288 797.5,-324"/>
<text text-anchor="middle" x="739" y="-302.3" font-family="Times New Roman,serif" font-size="14.00">1_Declaracion &#45;&gt; </text>
</g>
<!-- 25_instruccion &#45;&gt; &#45;&gt;1_Declaracion &#45;&gt;  -->
<g id="edge3" class="edge">
<title>25_instruccion &#45;&gt; &#45;&gt;1_Declaracion &#45;&gt; </title>
<path fill="none" stroke="black" d="M888.06,-359.97C860.53,-350.19 825.78,-337.84 796.76,-327.52"/>
<polygon fill="black" stroke="black" points="797.75,-324.16 787.15,-324.11 795.41,-330.76 797.75,-324.16"/>
</g>
<!-- 24_instruccion &#45;&gt;  -->
<g id="node12" class="node">
<title>24_instruccion &#45;&gt; </title>
<polygon fill="white" stroke="black" points="1193.5,-324 1074.5,-324 1074.5,-288 1193.5,-288 1193.5,-324"/>
<text text-anchor="middle" x="1134" y="-302.3" font-family="Times New Roman,serif" font-size="14.00">24_instruccion &#45;&gt; </text>
</g>
<!-- 25_instruccion &#45;&gt; &#45;&gt;24_instruccion &#45;&gt;  -->
<g id="edge11" class="edge">
<title>25_instruccion &#45;&gt; &#45;&gt;24_instruccion &#45;&gt; </title>
<path fill="none" stroke="black" d="M984.18,-359.97C1011.85,-350.19 1046.78,-337.84 1075.95,-327.52"/>
<polygon fill="black" stroke="black" points="1077.34,-330.74 1085.6,-324.11 1075.01,-324.14 1077.34,-330.74"/>
</g>
<!-- 2_Ingresar &#45;&gt; ingresar -->
<g id="node5" class="node">
<title>2_Ingresar &#45;&gt; ingresar</title>
<polygon fill="white" stroke="black" points="140,-252 0,-252 0,-216 140,-216 140,-252"/>
<text text-anchor="middle" x="70" y="-230.3" font-family="Times New Roman,serif" font-size="14.00">2_Ingresar &#45;&gt; ingresar</text>
</g>
<!-- 1_Declaracion &#45;&gt; &#45;&gt;2_Ingresar &#45;&gt; ingresar -->
<g id="edge4" class="edge">
<title>1_Declaracion &#45;&gt; &#45;&gt;2_Ingresar &#45;&gt; ingresar</title>
<path fill="none" stroke="black" d="M680.09,-302.1C575.38,-296.42 349.83,-281.84 150.22,-252.08"/>
<polygon fill="black" stroke="black" points="150.54,-248.59 140.13,-250.56 149.5,-255.51 150.54,-248.59"/>
</g>
<!-- 3_Variables &#45;&gt; _operaciones1Avanzadas4_ -->
<g id="node6" class="node">
<title>3_Variables &#45;&gt; _operaciones1Avanzadas4_</title>
<polygon fill="white" stroke="black" points="418,-252 158,-252 158,-216 418,-216 418,-252"/>
<text text-anchor="middle" x="288" y="-230.3" font-family="Times New Roman,serif" font-size="14.00">3_Variables &#45;&gt; _operaciones1Avanzadas4_</text>
</g>
<!-- 1_Declaracion &#45;&gt; &#45;&gt;3_Variables &#45;&gt; _operaciones1Avanzadas4_ -->
<g id="edge5" class="edge">
<title>1_Declaracion &#45;&gt; &#45;&gt;3_Variables &#45;&gt; _operaciones1Avanzadas4_</title>
<path fill="none" stroke="black" d="M680.04,-295.85C611.18,-285.16 495.52,-267.21 407.62,-253.57"/>
<polygon fill="black" stroke="black" points="408,-250.08 397.58,-252.01 406.93,-257 408,-250.08"/>
</g>
<!-- 4_COMO &#45;&gt; Como -->
<g id="node7" class="node">
<title>4_COMO &#45;&gt; Como</title>
<polygon fill="white" stroke="black" points="565.5,-252 436.5,-252 436.5,-216 565.5,-216 565.5,-252"/>
<text text-anchor="middle" x="501" y="-230.3" font-family="Times New Roman,serif" font-size="14.00">4_COMO &#45;&gt; Como</text>
</g>
<!-- 1_Declaracion &#45;&gt; &#45;&gt;4_COMO &#45;&gt; Como -->
<g id="edge6" class="edge">
<title>1_Declaracion &#45;&gt; &#45;&gt;4_COMO &#45;&gt; Como</title>
<path fill="none" stroke="black" d="M681.08,-287.97C647.25,-278.01 604.38,-265.41 568.96,-254.99"/>
<polygon fill="black" stroke="black" points="569.76,-251.57 559.18,-252.11 567.78,-258.29 569.76,-251.57"/>
</g>
<!-- 5_TIPO &#45;&gt; numeRo -->
<g id="node8" class="node">
<title>5_TIPO &#45;&gt; numeRo</title>
<polygon fill="white" stroke="black" points="714.5,-252 583.5,-252 583.5,-216 714.5,-216 714.5,-252"/>
<text text-anchor="middle" x="649" y="-230.3" font-family="Times New Roman,serif" font-size="14.00">5_TIPO &#45;&gt; numeRo</text>
</g>
<!-- 1_Declaracion &#45;&gt; &#45;&gt;5_TIPO &#45;&gt; numeRo -->
<g id="edge7" class="edge">
<title>1_Declaracion &#45;&gt; &#45;&gt;5_TIPO &#45;&gt; numeRo</title>
<path fill="none" stroke="black" d="M716.75,-287.7C705.42,-278.88 691.47,-268.03 679.18,-258.47"/>
<polygon fill="black" stroke="black" points="681.03,-255.48 670.99,-252.1 676.74,-261.01 681.03,-255.48"/>
</g>
<!-- 6_CON_VALOR &#45;&gt; con_valor -->
<g id="node9" class="node">
<title>6_CON_VALOR &#45;&gt; con_valor</title>
<polygon fill="white" stroke="black" points="925.5,-252 732.5,-252 732.5,-216 925.5,-216 925.5,-252"/>
<text text-anchor="middle" x="829" y="-230.3" font-family="Times New Roman,serif" font-size="14.00">6_CON_VALOR &#45;&gt; con_valor</text>
</g>
<!-- 1_Declaracion &#45;&gt; &#45;&gt;6_CON_VALOR &#45;&gt; con_valor -->
<g id="edge8" class="edge">
<title>1_Declaracion &#45;&gt; &#45;&gt;6_CON_VALOR &#45;&gt; con_valor</title>
<path fill="none" stroke="black" d="M761.25,-287.7C772.58,-278.88 786.53,-268.03 798.82,-258.47"/>
<polygon fill="black" stroke="black" points="801.26,-261.01 807.01,-252.1 796.97,-255.48 801.26,-261.01"/>
</g>
<!-- 7_Valores &#45;&gt; (30potencia[10&#45;8+9&#45;4*2&#45;1])+(2) -->
<g id="node10" class="node">
<title>7_Valores &#45;&gt; (30potencia[10&#45;8+9&#45;4*2&#45;1])+(2)</title>
<polygon fill="white" stroke="black" points="1216,-252 944,-252 944,-216 1216,-216 1216,-252"/>
<text text-anchor="middle" x="1080" y="-230.3" font-family="Times New Roman,serif" font-size="14.00">7_Valores &#45;&gt; (30potencia[10&#45;8+9&#45;4*2&#45;1])+(2)</text>
</g>
<!-- 1_Declaracion &#45;&gt; &#45;&gt;7_Valores &#45;&gt; (30potencia[10&#45;8+9&#45;4*2&#45;1])+(2) -->
<g id="edge9" class="edge">
<title>1_Declaracion &#45;&gt; &#45;&gt;7_Valores &#45;&gt; (30potencia[10&#45;8+9&#45;4*2&#45;1])+(2)</title>
<path fill="none" stroke="black" d="M797.62,-292.97C849.66,-282.28 926.6,-266.49 987.03,-254.09"/>
<polygon fill="black" stroke="black" points="987.87,-257.49 996.96,-252.05 986.46,-250.63 987.87,-257.49"/>
</g>
<!-- 8_; &#45;&gt; ; -->
<g id="node11" class="node">
<title>8_; &#45;&gt; ;</title>
<polygon fill="white" stroke="black" points="1293.5,-252 1234.5,-252 1234.5,-216 1293.5,-216 1293.5,-252"/>
<text text-anchor="middle" x="1264" y="-230.3" font-family="Times New Roman,serif" font-size="14.00">8_; &#45;&gt; ;</text>
</g>
<!-- 1_Declaracion &#45;&gt; &#45;&gt;8_; &#45;&gt; ; -->
<g id="edge10" class="edge">
<title>1_Declaracion &#45;&gt; &#45;&gt;8_; &#45;&gt; ;</title>
<path fill="none" stroke="black" d="M797.64,-304.28C888.15,-301.95 1066.96,-292.42 1224.24,-251.7"/>
<polygon fill="black" stroke="black" points="1225.31,-255.04 1234.09,-249.11 1223.53,-248.27 1225.31,-255.04"/>
</g>
<!-- 18_FUNCION &#45;&gt; funcion -->
<g id="node13" class="node">
<title>18_FUNCION &#45;&gt; funcion</title>
<polygon fill="white" stroke="black" points="1474,-252 1312,-252 1312,-216 1474,-216 1474,-252"/>
<text text-anchor="middle" x="1393" y="-230.3" font-family="Times New Roman,serif" font-size="14.00">18_FUNCION &#45;&gt; funcion</text>
</g>
<!-- 24_instruccion &#45;&gt; &#45;&gt;18_FUNCION &#45;&gt; funcion -->
<g id="edge12" class="edge">
<title>24_instruccion &#45;&gt; &#45;&gt;18_FUNCION &#45;&gt; funcion</title>
<path fill="none" stroke="black" d="M1193.75,-288.85C1231.42,-278.67 1280.33,-265.45 1320.26,-254.66"/>
<polygon fill="black" stroke="black" points="1321.2,-258.03 1329.94,-252.04 1319.38,-251.27 1321.2,-258.03"/>
</g>
<!-- 19_Nombre &#45;&gt; _potenciaFuncion_ -->
<g id="node14" class="node">
<title>19_Nombre &#45;&gt; _potenciaFuncion_</title>
<polygon fill="white" stroke="black" points="869,-180 657,-180 657,-144 869,-144 869,-180"/>
<text text-anchor="middle" x="763" y="-158.3" font-family="Times New Roman,serif" font-size="14.00">19_Nombre &#45;&gt; _potenciaFuncion_</text>
</g>
<!-- 18_FUNCION &#45;&gt; funcion&#45;&gt;19_Nombre &#45;&gt; _potenciaFuncion_ -->
<g id="edge13" class="edge">
<title>18_FUNCION &#45;&gt; funcion&#45;&gt;19_Nombre &#45;&gt; _potenciaFuncion_</title>
<path fill="none" stroke="black" d="M1311.63,-217.24C1308.72,-216.8 1305.84,-216.39 1303,-216 1118.38,-190.81 1068.01,-201.49 879.15,-180.09"/>
<polygon fill="black" stroke="black" points="879.51,-176.6 869.17,-178.94 878.71,-183.56 879.51,-176.6"/>
</g>
<!-- 20_Tipo &#45;&gt; Numero -->
<g id="node15" class="node">
<title>20_Tipo &#45;&gt; Numero</title>
<polygon fill="white" stroke="black" points="1017,-180 887,-180 887,-144 1017,-144 1017,-180"/>
<text text-anchor="middle" x="952" y="-158.3" font-family="Times New Roman,serif" font-size="14.00">20_Tipo &#45;&gt; Numero</text>
</g>
<!-- 18_FUNCION &#45;&gt; funcion&#45;&gt;20_Tipo &#45;&gt; Numero -->
<g id="edge14" class="edge">
<title>18_FUNCION &#45;&gt; funcion&#45;&gt;20_Tipo &#45;&gt; Numero</title>
<path fill="none" stroke="black" d="M1311.6,-217.41C1308.7,-216.92 1305.83,-216.45 1303,-216 1183.63,-196.99 1149.96,-201.65 1027.45,-180.17"/>
<polygon fill="black" stroke="black" points="1027.76,-176.67 1017.3,-178.36 1026.53,-183.56 1027.76,-176.67"/>
</g>
<!-- 21_parametros &#45;&gt; con_parametros(_base_Numero,_exponente_Numero) -->
<g id="node16" class="node">
<title>21_parametros &#45;&gt; con_parametros(_base_Numero,_exponente_Numero)</title>
<polygon fill="white" stroke="black" points="1461,-180 1035,-180 1035,-144 1461,-144 1461,-180"/>
<text text-anchor="middle" x="1248" y="-158.3" font-family="Times New Roman,serif" font-size="14.00">21_parametros &#45;&gt; con_parametros(_base_Numero,_exponente_Numero)</text>
</g>
<!-- 18_FUNCION &#45;&gt; funcion&#45;&gt;21_parametros &#45;&gt; con_parametros(_base_Numero,_exponente_Numero) -->
<g id="edge15" class="edge">
<title>18_FUNCION &#45;&gt; funcion&#45;&gt;21_parametros &#45;&gt; con_parametros(_base_Numero,_exponente_Numero)</title>
<path fill="none" stroke="black" d="M1357.53,-215.88C1337.88,-206.39 1313.28,-194.51 1292.37,-184.42"/>
<polygon fill="black" stroke="black" points="1293.88,-181.26 1283.36,-180.07 1290.84,-187.57 1293.88,-181.26"/>
</g>
<!-- 17_instruccion &#45;&gt;  -->
<g id="node17" class="node">
<title>17_instruccion &#45;&gt; </title>
<polygon fill="white" stroke="black" points="1598.5,-180 1479.5,-180 1479.5,-144 1598.5,-144 1598.5,-180"/>
<text text-anchor="middle" x="1539" y="-158.3" font-family="Times New Roman,serif" font-size="14.00">17_instruccion &#45;&gt; </text>
</g>
<!-- 18_FUNCION &#45;&gt; funcion&#45;&gt;17_instruccion &#45;&gt;  -->
<g id="edge16" class="edge">
<title>18_FUNCION &#45;&gt; funcion&#45;&gt;17_instruccion &#45;&gt; </title>
<path fill="none" stroke="black" d="M1428.72,-215.88C1448.5,-206.39 1473.27,-194.51 1494.33,-184.42"/>
<polygon fill="black" stroke="black" points="1495.9,-187.55 1503.4,-180.07 1492.87,-181.24 1495.9,-187.55"/>
</g>
<!-- 22_RETURN &#45;&gt; _potencia_ -->
<g id="node26" class="node">
<title>22_RETURN &#45;&gt; _potencia_</title>
<polygon fill="white" stroke="black" points="1793,-180 1617,-180 1617,-144 1793,-144 1793,-180"/>
<text text-anchor="middle" x="1705" y="-158.3" font-family="Times New Roman,serif" font-size="14.00">22_RETURN &#45;&gt; _potencia_</text>
</g>
<!-- 18_FUNCION &#45;&gt; funcion&#45;&gt;22_RETURN &#45;&gt; _potencia_ -->
<g id="edge25" class="edge">
<title>18_FUNCION &#45;&gt; funcion&#45;&gt;22_RETURN &#45;&gt; _potencia_</title>
<path fill="none" stroke="black" d="M1468.92,-215.97C1514.31,-205.78 1572.1,-192.82 1619.14,-182.26"/>
<polygon fill="black" stroke="black" points="1620.01,-185.65 1629.01,-180.05 1618.48,-178.82 1620.01,-185.65"/>
</g>
<!-- 23_FIN_FUNCION &#45;&gt; fin_funcion -->
<g id="node27" class="node">
<title>23_FIN_FUNCION &#45;&gt; fin_funcion</title>
<polygon fill="white" stroke="black" points="2025,-180 1811,-180 1811,-144 2025,-144 2025,-180"/>
<text text-anchor="middle" x="1918" y="-158.3" font-family="Times New Roman,serif" font-size="14.00">23_FIN_FUNCION &#45;&gt; fin_funcion</text>
</g>
<!-- 18_FUNCION &#45;&gt; funcion&#45;&gt;23_FIN_FUNCION &#45;&gt; fin_funcion -->
<g id="edge26" class="edge">
<title>18_FUNCION &#45;&gt; funcion&#45;&gt;23_FIN_FUNCION &#45;&gt; fin_funcion</title>
<path fill="none" stroke="black" d="M1474.15,-222.89C1554.45,-212.79 1681.18,-196.61 1800.81,-180.15"/>
<polygon fill="black" stroke="black" points="1801.45,-183.6 1810.88,-178.76 1800.5,-176.66 1801.45,-183.6"/>
</g>
<!-- 9_Declaracion &#45;&gt;  -->
<g id="node18" class="node">
<title>9_Declaracion &#45;&gt; </title>
<polygon fill="white" stroke="black" points="1597.5,-108 1480.5,-108 1480.5,-72 1597.5,-72 1597.5,-108"/>
<text text-anchor="middle" x="1539" y="-86.3" font-family="Times New Roman,serif" font-size="14.00">9_Declaracion &#45;&gt; </text>
</g>
<!-- 17_instruccion &#45;&gt; &#45;&gt;9_Declaracion &#45;&gt;  -->
<g id="edge17" class="edge">
<title>17_instruccion &#45;&gt; &#45;&gt;9_Declaracion &#45;&gt; </title>
<path fill="none" stroke="black" d="M1539,-143.7C1539,-135.98 1539,-126.71 1539,-118.11"/>
<polygon fill="black" stroke="black" points="1542.5,-118.1 1539,-108.1 1535.5,-118.1 1542.5,-118.1"/>
</g>
<!-- 10_Ingresar &#45;&gt; ingresar -->
<g id="node19" class="node">
<title>10_Ingresar &#45;&gt; ingresar</title>
<polygon fill="white" stroke="black" points="1112,-36 966,-36 966,0 1112,0 1112,-36"/>
<text text-anchor="middle" x="1039" y="-14.3" font-family="Times New Roman,serif" font-size="14.00">10_Ingresar &#45;&gt; ingresar</text>
</g>
<!-- 9_Declaracion &#45;&gt; &#45;&gt;10_Ingresar &#45;&gt; ingresar -->
<g id="edge18" class="edge">
<title>9_Declaracion &#45;&gt; &#45;&gt;10_Ingresar &#45;&gt; ingresar</title>
<path fill="none" stroke="black" d="M1480.29,-83.02C1401.2,-74.64 1255.85,-58.1 1122.27,-36.14"/>
<polygon fill="black" stroke="black" points="1122.7,-32.67 1112.26,-34.49 1121.56,-39.57 1122.7,-32.67"/>
</g>
<!-- 11_Variables &#45;&gt; _potencia_ -->
<g id="node20" class="node">
<title>11_Variables &#45;&gt; _potencia_</title>
<polygon fill="white" stroke="black" points="1302,-36 1130,-36 1130,0 1302,0 1302,-36"/>
<text text-anchor="middle" x="1216" y="-14.3" font-family="Times New Roman,serif" font-size="14.00">11_Variables &#45;&gt; _potencia_</text>
</g>
<!-- 9_Declaracion &#45;&gt; &#45;&gt;11_Variables &#45;&gt; _potencia_ -->
<g id="edge19" class="edge">
<title>9_Declaracion &#45;&gt; &#45;&gt;11_Variables &#45;&gt; _potencia_</title>
<path fill="none" stroke="black" d="M1480.13,-76.24C1431.04,-65.6 1360.34,-50.28 1304.44,-38.17"/>
<polygon fill="black" stroke="black" points="1305.05,-34.72 1294.54,-36.02 1303.57,-41.56 1305.05,-34.72"/>
</g>
<!-- 12_COMO &#45;&gt; como -->
<g id="node21" class="node">
<title>12_COMO &#45;&gt; como</title>
<polygon fill="white" stroke="black" points="1453.5,-36 1320.5,-36 1320.5,0 1453.5,0 1453.5,-36"/>
<text text-anchor="middle" x="1387" y="-14.3" font-family="Times New Roman,serif" font-size="14.00">12_COMO &#45;&gt; como</text>
</g>
<!-- 9_Declaracion &#45;&gt; &#45;&gt;12_COMO &#45;&gt; como -->
<g id="edge20" class="edge">
<title>9_Declaracion &#45;&gt; &#45;&gt;12_COMO &#45;&gt; como</title>
<path fill="none" stroke="black" d="M1501.82,-71.88C1481.13,-62.35 1455.2,-50.41 1433.22,-40.28"/>
<polygon fill="black" stroke="black" points="1434.61,-37.07 1424.06,-36.07 1431.68,-43.43 1434.61,-37.07"/>
</g>
<!-- 13_TIPO &#45;&gt; Numero -->
<g id="node22" class="node">
<title>13_TIPO &#45;&gt; Numero</title>
<polygon fill="white" stroke="black" points="1606.5,-36 1471.5,-36 1471.5,0 1606.5,0 1606.5,-36"/>
<text text-anchor="middle" x="1539" y="-14.3" font-family="Times New Roman,serif" font-size="14.00">13_TIPO &#45;&gt; Numero</text>
</g>
<!-- 9_Declaracion &#45;&gt; &#45;&gt;13_TIPO &#45;&gt; Numero -->
<g id="edge21" class="edge">
<title>9_Declaracion &#45;&gt; &#45;&gt;13_TIPO &#45;&gt; Numero</title>
<path fill="none" stroke="black" d="M1539,-71.7C1539,-63.98 1539,-54.71 1539,-46.11"/>
<polygon fill="black" stroke="black" points="1542.5,-46.1 1539,-36.1 1535.5,-46.1 1542.5,-46.1"/>
</g>
<!-- 14_CON_VALOR &#45;&gt; con_valor -->
<g id="node23" class="node">
<title>14_CON_VALOR &#45;&gt; con_valor</title>
<polygon fill="white" stroke="black" points="1825,-36 1625,-36 1625,0 1825,0 1825,-36"/>
<text text-anchor="middle" x="1725" y="-14.3" font-family="Times New Roman,serif" font-size="14.00">14_CON_VALOR &#45;&gt; con_valor</text>
</g>
<!-- 9_Declaracion &#45;&gt; &#45;&gt;14_CON_VALOR &#45;&gt; con_valor -->
<g id="edge22" class="edge">
<title>9_Declaracion &#45;&gt; &#45;&gt;14_CON_VALOR &#45;&gt; con_valor</title>
<path fill="none" stroke="black" d="M1584.5,-71.88C1610.38,-62.14 1642.97,-49.87 1670.24,-39.61"/>
<polygon fill="black" stroke="black" points="1671.52,-42.87 1679.65,-36.07 1669.06,-36.31 1671.52,-42.87"/>
</g>
<!-- 15_Valores &#45;&gt; _base_potencia[_exponente_] -->
<g id="node24" class="node">
<title>15_Valores &#45;&gt; _base_potencia[_exponente_]</title>
<polygon fill="white" stroke="black" points="2112.5,-36 1843.5,-36 1843.5,0 2112.5,0 2112.5,-36"/>
<text text-anchor="middle" x="1978" y="-14.3" font-family="Times New Roman,serif" font-size="14.00">15_Valores &#45;&gt; _base_potencia[_exponente_]</text>
</g>
<!-- 9_Declaracion &#45;&gt; &#45;&gt;15_Valores &#45;&gt; _base_potencia[_exponente_] -->
<g id="edge23" class="edge">
<title>9_Declaracion &#45;&gt; &#45;&gt;15_Valores &#45;&gt; _base_potencia[_exponente_]</title>
<path fill="none" stroke="black" d="M1597.75,-79.63C1664.84,-68.94 1776.27,-51.17 1861.21,-37.62"/>
<polygon fill="black" stroke="black" points="1861.84,-41.07 1871.17,-36.04 1860.74,-34.15 1861.84,-41.07"/>
</g>
<!-- 16_; &#45;&gt; ; -->
<g id="node25" class="node">
<title>16_; &#45;&gt; ;</title>
<polygon fill="white" stroke="black" points="2195.5,-36 2130.5,-36 2130.5,0 2195.5,0 2195.5,-36"/>
<text text-anchor="middle" x="2163" y="-14.3" font-family="Times New Roman,serif" font-size="14.00">16_; &#45;&gt; ;</text>
</g>
<!-- 9_Declaracion &#45;&gt; &#45;&gt;16_; &#45;&gt; ; -->
<g id="edge24" class="edge">
<title>9_Declaracion &#45;&gt; &#45;&gt;16_; &#45;&gt; ;</title>
<path fill="none" stroke="black" d="M1597.89,-89.47C1702.42,-89.05 1926.9,-82.47 2120.4,-36"/>
<polygon fill="black" stroke="black" points="2121.29,-39.39 2130.17,-33.61 2119.63,-32.59 2121.29,-39.39"/>
</g>
</g>
</svg>
