<?xml version="1.0" encoding="UTF-8" standalone="no"?>
<!DOCTYPE svg PUBLIC "-//W3C//DTD SVG 1.1//EN"
 "http://www.w3.org/Graphics/SVG/1.1/DTD/svg11.dtd">
<!-- Generated by graphviz version 5.0.1 (20220820.1526)
 -->
<!-- Title: G Pages: 1 -->
<svg width="1183pt" height="764pt"
 viewBox="0.00 0.00 1183.00 764.00" xmlns="http://www.w3.org/2000/svg" xmlns:xlink="http://www.w3.org/1999/xlink">
<g id="graph0" class="graph" transform="scale(1 1) rotate(0) translate(4 760)">
<title>G</title>
<polygon fill="white" stroke="none" points="-4,4 -4,-760 1179,-760 1179,4 -4,4"/>
<!-- 43_Global &#45;&gt;  -->
<g id="node1" class="node">
<title>43_Global &#45;&gt; </title>
<polygon fill="white" stroke="black" points="483,-756 388,-756 388,-720 483,-720 483,-756"/>
<text text-anchor="middle" x="435.5" y="-734.3" font-family="Times New Roman,serif" font-size="14.00">43_Global &#45;&gt; </text>
</g>
<!-- 44_inicio &#45;&gt; inicio -->
<g id="node2" class="node">
<title>44_inicio &#45;&gt; inicio</title>
<polygon fill="white" stroke="black" points="357.5,-684 239.5,-684 239.5,-648 357.5,-648 357.5,-684"/>
<text text-anchor="middle" x="298.5" y="-662.3" font-family="Times New Roman,serif" font-size="14.00">44_inicio &#45;&gt; inicio</text>
</g>
<!-- 43_Global &#45;&gt; &#45;&gt;44_inicio &#45;&gt; inicio -->
<g id="edge1" class="edge">
<title>43_Global &#45;&gt; &#45;&gt;44_inicio &#45;&gt; inicio</title>
<path fill="none" stroke="black" d="M401.99,-719.88C383.66,-710.51 360.76,-698.81 341.17,-688.8"/>
<polygon fill="black" stroke="black" points="342.64,-685.62 332.14,-684.19 339.46,-691.86 342.64,-685.62"/>
</g>
<!-- 42_instruccion &#45;&gt;  -->
<g id="node3" class="node">
<title>42_instruccion &#45;&gt; </title>
<polygon fill="white" stroke="black" points="495,-684 376,-684 376,-648 495,-648 495,-684"/>
<text text-anchor="middle" x="435.5" y="-662.3" font-family="Times New Roman,serif" font-size="14.00">42_instruccion &#45;&gt; </text>
</g>
<!-- 43_Global &#45;&gt; &#45;&gt;42_instruccion &#45;&gt;  -->
<g id="edge2" class="edge">
<title>43_Global &#45;&gt; &#45;&gt;42_instruccion &#45;&gt; </title>
<path fill="none" stroke="black" d="M435.5,-719.7C435.5,-711.98 435.5,-702.71 435.5,-694.11"/>
<polygon fill="black" stroke="black" points="439,-694.1 435.5,-684.1 432,-694.1 439,-694.1"/>
</g>
<!-- 45_final &#45;&gt; fin -->
<g id="node39" class="node">
<title>45_final &#45;&gt; fin</title>
<polygon fill="white" stroke="black" points="608,-684 513,-684 513,-648 608,-648 608,-684"/>
<text text-anchor="middle" x="560.5" y="-662.3" font-family="Times New Roman,serif" font-size="14.00">45_final &#45;&gt; fin</text>
</g>
<!-- 43_Global &#45;&gt; &#45;&gt;45_final &#45;&gt; fin -->
<g id="edge38" class="edge">
<title>43_Global &#45;&gt; &#45;&gt;45_final &#45;&gt; fin</title>
<path fill="none" stroke="black" d="M466.08,-719.88C482.57,-710.64 503.12,-699.13 520.84,-689.21"/>
<polygon fill="black" stroke="black" points="522.79,-692.13 529.8,-684.19 519.37,-686.02 522.79,-692.13"/>
</g>
<!-- 1_Asignacion &#45;&gt;  -->
<g id="node4" class="node">
<title>1_Asignacion &#45;&gt; </title>
<polygon fill="white" stroke="black" points="405,-612 292,-612 292,-576 405,-576 405,-612"/>
<text text-anchor="middle" x="348.5" y="-590.3" font-family="Times New Roman,serif" font-size="14.00">1_Asignacion &#45;&gt; </text>
</g>
<!-- 42_instruccion &#45;&gt; &#45;&gt;1_Asignacion &#45;&gt;  -->
<g id="edge3" class="edge">
<title>42_instruccion &#45;&gt; &#45;&gt;1_Asignacion &#45;&gt; </title>
<path fill="none" stroke="black" d="M413.99,-647.7C403.04,-638.88 389.55,-628.03 377.68,-618.47"/>
<polygon fill="black" stroke="black" points="379.74,-615.65 369.76,-612.1 375.36,-621.1 379.74,-615.65"/>
</g>
<!-- 41_instruccion &#45;&gt;  -->
<g id="node9" class="node">
<title>41_instruccion &#45;&gt; </title>
<polygon fill="white" stroke="black" points="583,-612 464,-612 464,-576 583,-576 583,-612"/>
<text text-anchor="middle" x="523.5" y="-590.3" font-family="Times New Roman,serif" font-size="14.00">41_instruccion &#45;&gt; </text>
</g>
<!-- 42_instruccion &#45;&gt; &#45;&gt;41_instruccion &#45;&gt;  -->
<g id="edge8" class="edge">
<title>42_instruccion &#45;&gt; &#45;&gt;41_instruccion &#45;&gt; </title>
<path fill="none" stroke="black" d="M457.25,-647.7C468.34,-638.88 481.97,-628.03 493.99,-618.47"/>
<polygon fill="black" stroke="black" points="496.35,-621.07 502,-612.1 491.99,-615.59 496.35,-621.07"/>
</g>
<!-- 2_Variables &#45;&gt; _varaux_ -->
<g id="node5" class="node">
<title>2_Variables &#45;&gt; _varaux_</title>
<polygon fill="white" stroke="black" points="155,-540 0,-540 0,-504 155,-504 155,-540"/>
<text text-anchor="middle" x="77.5" y="-518.3" font-family="Times New Roman,serif" font-size="14.00">2_Variables &#45;&gt; _varaux_</text>
</g>
<!-- 1_Asignacion &#45;&gt; &#45;&gt;2_Variables &#45;&gt; _varaux_ -->
<g id="edge4" class="edge">
<title>1_Asignacion &#45;&gt; &#45;&gt;2_Variables &#45;&gt; _varaux_</title>
<path fill="none" stroke="black" d="M291.69,-578.33C251.58,-567.96 197.38,-553.97 153.54,-542.64"/>
<polygon fill="black" stroke="black" points="154.34,-539.23 143.79,-540.12 152.59,-546.01 154.34,-539.23"/>
</g>
<!-- 3_Asignar &#45;&gt; &#45;&gt; -->
<g id="node6" class="node">
<title>3_Asignar &#45;&gt; &#45;&gt;</title>
<polygon fill="white" stroke="black" points="280,-540 173,-540 173,-504 280,-504 280,-540"/>
<text text-anchor="middle" x="226.5" y="-518.3" font-family="Times New Roman,serif" font-size="14.00">3_Asignar &#45;&gt; &#45;&gt;</text>
</g>
<!-- 1_Asignacion &#45;&gt; &#45;&gt;3_Asignar &#45;&gt; &#45;&gt; -->
<g id="edge5" class="edge">
<title>1_Asignacion &#45;&gt; &#45;&gt;3_Asignar &#45;&gt; &#45;&gt;</title>
<path fill="none" stroke="black" d="M318.66,-575.88C302.56,-566.64 282.5,-555.13 265.21,-545.21"/>
<polygon fill="black" stroke="black" points="266.87,-542.13 256.46,-540.19 263.39,-548.2 266.87,-542.13"/>
</g>
<!-- 4_Valores &#45;&gt; 5 -->
<g id="node7" class="node">
<title>4_Valores &#45;&gt; 5</title>
<polygon fill="white" stroke="black" points="399,-540 298,-540 298,-504 399,-504 399,-540"/>
<text text-anchor="middle" x="348.5" y="-518.3" font-family="Times New Roman,serif" font-size="14.00">4_Valores &#45;&gt; 5</text>
</g>
<!-- 1_Asignacion &#45;&gt; &#45;&gt;4_Valores &#45;&gt; 5 -->
<g id="edge6" class="edge">
<title>1_Asignacion &#45;&gt; &#45;&gt;4_Valores &#45;&gt; 5</title>
<path fill="none" stroke="black" d="M348.5,-575.7C348.5,-567.98 348.5,-558.71 348.5,-550.11"/>
<polygon fill="black" stroke="black" points="352,-550.1 348.5,-540.1 345,-550.1 352,-550.1"/>
</g>
<!-- 5_; &#45;&gt; ; -->
<g id="node8" class="node">
<title>5_; &#45;&gt; ;</title>
<polygon fill="white" stroke="black" points="476,-540 417,-540 417,-504 476,-504 476,-540"/>
<text text-anchor="middle" x="446.5" y="-518.3" font-family="Times New Roman,serif" font-size="14.00">5_; &#45;&gt; ;</text>
</g>
<!-- 1_Asignacion &#45;&gt; &#45;&gt;5_; &#45;&gt; ; -->
<g id="edge7" class="edge">
<title>1_Asignacion &#45;&gt; &#45;&gt;5_; &#45;&gt; ;</title>
<path fill="none" stroke="black" d="M372.47,-575.88C385.05,-566.89 400.63,-555.76 414.25,-546.03"/>
<polygon fill="black" stroke="black" points="416.33,-548.85 422.43,-540.19 412.26,-543.15 416.33,-548.85"/>
</g>
<!-- 39_SELECT &#45;&gt; segun -->
<g id="node10" class="node">
<title>39_SELECT &#45;&gt; segun</title>
<polygon fill="white" stroke="black" points="636.5,-540 494.5,-540 494.5,-504 636.5,-504 636.5,-540"/>
<text text-anchor="middle" x="565.5" y="-518.3" font-family="Times New Roman,serif" font-size="14.00">39_SELECT &#45;&gt; segun</text>
</g>
<!-- 41_instruccion &#45;&gt; &#45;&gt;39_SELECT &#45;&gt; segun -->
<g id="edge9" class="edge">
<title>41_instruccion &#45;&gt; &#45;&gt;39_SELECT &#45;&gt; segun</title>
<path fill="none" stroke="black" d="M533.88,-575.7C538.76,-567.56 544.69,-557.69 550.08,-548.7"/>
<polygon fill="black" stroke="black" points="553.09,-550.48 555.24,-540.1 547.09,-546.88 553.09,-550.48"/>
</g>
<!-- 37_&lt;Valor&gt; &#45;&gt; _varaux_ -->
<g id="node11" class="node">
<title>37_&lt;Valor&gt; &#45;&gt; _varaux_</title>
<polygon fill="white" stroke="black" points="335,-468 178,-468 178,-432 335,-432 335,-468"/>
<text text-anchor="middle" x="256.5" y="-446.3" font-family="Times New Roman,serif" font-size="14.00">37_&lt;Valor&gt; &#45;&gt; _varaux_</text>
</g>
<!-- 39_SELECT &#45;&gt; segun&#45;&gt;37_&lt;Valor&gt; &#45;&gt; _varaux_ -->
<g id="edge10" class="edge">
<title>39_SELECT &#45;&gt; segun&#45;&gt;37_&lt;Valor&gt; &#45;&gt; _varaux_</title>
<path fill="none" stroke="black" d="M494.22,-504.85C448.79,-494.56 389.69,-481.17 341.78,-470.32"/>
<polygon fill="black" stroke="black" points="342.26,-466.84 331.73,-468.04 340.71,-473.67 342.26,-466.84"/>
</g>
<!-- 38_hacer &#45;&gt; hacer -->
<g id="node12" class="node">
<title>38_hacer &#45;&gt; hacer</title>
<polygon fill="white" stroke="black" points="471.5,-468 353.5,-468 353.5,-432 471.5,-432 471.5,-468"/>
<text text-anchor="middle" x="412.5" y="-446.3" font-family="Times New Roman,serif" font-size="14.00">38_hacer &#45;&gt; hacer</text>
</g>
<!-- 39_SELECT &#45;&gt; segun&#45;&gt;38_hacer &#45;&gt; hacer -->
<g id="edge11" class="edge">
<title>39_SELECT &#45;&gt; segun&#45;&gt;38_hacer &#45;&gt; hacer</title>
<path fill="none" stroke="black" d="M528.07,-503.88C507.25,-494.35 481.15,-482.41 459.02,-472.28"/>
<polygon fill="black" stroke="black" points="460.36,-469.05 449.81,-468.07 457.44,-475.41 460.36,-469.05"/>
</g>
<!-- 29_case &#45;&gt; ¿0?entonces -->
<g id="node13" class="node">
<title>29_case &#45;&gt; ¿0?entonces</title>
<polygon fill="white" stroke="black" points="641,-468 490,-468 490,-432 641,-432 641,-468"/>
<text text-anchor="middle" x="565.5" y="-446.3" font-family="Times New Roman,serif" font-size="14.00">29_case &#45;&gt; ¿0?entonces</text>
</g>
<!-- 39_SELECT &#45;&gt; segun&#45;&gt;29_case &#45;&gt; ¿0?entonces -->
<g id="edge12" class="edge">
<title>39_SELECT &#45;&gt; segun&#45;&gt;29_case &#45;&gt; ¿0?entonces</title>
<path fill="none" stroke="black" d="M565.5,-503.7C565.5,-495.98 565.5,-486.71 565.5,-478.11"/>
<polygon fill="black" stroke="black" points="569,-478.1 565.5,-468.1 562,-478.1 569,-478.1"/>
</g>
<!-- 35_default &#45;&gt; de_lo_contrarioentonces -->
<g id="node33" class="node">
<title>35_default &#45;&gt; de_lo_contrarioentonces</title>
<polygon fill="white" stroke="black" points="893.5,-468 659.5,-468 659.5,-432 893.5,-432 893.5,-468"/>
<text text-anchor="middle" x="776.5" y="-446.3" font-family="Times New Roman,serif" font-size="14.00">35_default &#45;&gt; de_lo_contrarioentonces</text>
</g>
<!-- 39_SELECT &#45;&gt; segun&#45;&gt;35_default &#45;&gt; de_lo_contrarioentonces -->
<g id="edge32" class="edge">
<title>39_SELECT &#45;&gt; segun&#45;&gt;35_default &#45;&gt; de_lo_contrarioentonces</title>
<path fill="none" stroke="black" d="M616.85,-503.97C646.46,-494.14 683.87,-481.73 715.04,-471.39"/>
<polygon fill="black" stroke="black" points="716.53,-474.58 724.92,-468.11 714.33,-467.94 716.53,-474.58"/>
</g>
<!-- 40_END_SELECT &#45;&gt; fin_segun -->
<g id="node38" class="node">
<title>40_END_SELECT &#45;&gt; fin_segun</title>
<polygon fill="white" stroke="black" points="1111,-468 912,-468 912,-432 1111,-432 1111,-468"/>
<text text-anchor="middle" x="1011.5" y="-446.3" font-family="Times New Roman,serif" font-size="14.00">40_END_SELECT &#45;&gt; fin_segun</text>
</g>
<!-- 39_SELECT &#45;&gt; segun&#45;&gt;40_END_SELECT &#45;&gt; fin_segun -->
<g id="edge37" class="edge">
<title>39_SELECT &#45;&gt; segun&#45;&gt;40_END_SELECT &#45;&gt; fin_segun</title>
<path fill="none" stroke="black" d="M636.66,-509.83C708.15,-498.61 819.29,-481.17 902.01,-468.18"/>
<polygon fill="black" stroke="black" points="902.62,-471.63 911.95,-466.62 901.53,-464.72 902.62,-471.63"/>
</g>
<!-- 9_instruccion &#45;&gt;  -->
<g id="node14" class="node">
<title>9_instruccion &#45;&gt; </title>
<polygon fill="white" stroke="black" points="463,-396 350,-396 350,-360 463,-360 463,-396"/>
<text text-anchor="middle" x="406.5" y="-374.3" font-family="Times New Roman,serif" font-size="14.00">9_instruccion &#45;&gt; </text>
</g>
<!-- 29_case &#45;&gt; ¿0?entonces&#45;&gt;9_instruccion &#45;&gt;  -->
<g id="edge13" class="edge">
<title>29_case &#45;&gt; ¿0?entonces&#45;&gt;9_instruccion &#45;&gt; </title>
<path fill="none" stroke="black" d="M526.6,-431.88C504.87,-422.31 477.6,-410.3 454.54,-400.15"/>
<polygon fill="black" stroke="black" points="455.83,-396.89 445.27,-396.07 453.01,-403.3 455.83,-396.89"/>
</g>
<!-- 27_case &#45;&gt; ¿1?entonces -->
<g id="node18" class="node">
<title>27_case &#45;&gt; ¿1?entonces</title>
<polygon fill="white" stroke="black" points="641,-396 490,-396 490,-360 641,-360 641,-396"/>
<text text-anchor="middle" x="565.5" y="-374.3" font-family="Times New Roman,serif" font-size="14.00">27_case &#45;&gt; ¿1?entonces</text>
</g>
<!-- 29_case &#45;&gt; ¿0?entonces&#45;&gt;27_case &#45;&gt; ¿1?entonces -->
<g id="edge17" class="edge">
<title>29_case &#45;&gt; ¿0?entonces&#45;&gt;27_case &#45;&gt; ¿1?entonces</title>
<path fill="none" stroke="black" d="M565.5,-431.7C565.5,-423.98 565.5,-414.71 565.5,-406.11"/>
<polygon fill="black" stroke="black" points="569,-406.1 565.5,-396.1 562,-406.1 569,-406.1"/>
</g>
<!-- 6_IMPRIMIR &#45;&gt; imprimir_nl -->
<g id="node15" class="node">
<title>6_IMPRIMIR &#45;&gt; imprimir_nl</title>
<polygon fill="white" stroke="black" points="415.5,-324 235.5,-324 235.5,-288 415.5,-288 415.5,-324"/>
<text text-anchor="middle" x="325.5" y="-302.3" font-family="Times New Roman,serif" font-size="14.00">6_IMPRIMIR &#45;&gt; imprimir_nl</text>
</g>
<!-- 9_instruccion &#45;&gt; &#45;&gt;6_IMPRIMIR &#45;&gt; imprimir_nl -->
<g id="edge14" class="edge">
<title>9_instruccion &#45;&gt; &#45;&gt;6_IMPRIMIR &#45;&gt; imprimir_nl</title>
<path fill="none" stroke="black" d="M386.48,-359.7C376.37,-350.97 363.96,-340.24 352.98,-330.75"/>
<polygon fill="black" stroke="black" points="355.15,-327.99 345.29,-324.1 350.57,-333.29 355.15,-327.99"/>
</g>
<!-- 7_Valor &#45;&gt; &quot;el valor es 0&quot; -->
<g id="node16" class="node">
<title>7_Valor &#45;&gt; &quot;el valor es 0&quot;</title>
<polygon fill="white" stroke="black" points="281,-252 120,-252 120,-216 281,-216 281,-252"/>
<text text-anchor="middle" x="200.5" y="-230.3" font-family="Times New Roman,serif" font-size="14.00">7_Valor &#45;&gt; &quot;el valor es 0&quot;</text>
</g>
<!-- 6_IMPRIMIR &#45;&gt; imprimir_nl&#45;&gt;7_Valor &#45;&gt; &quot;el valor es 0&quot; -->
<g id="edge15" class="edge">
<title>6_IMPRIMIR &#45;&gt; imprimir_nl&#45;&gt;7_Valor &#45;&gt; &quot;el valor es 0&quot;</title>
<path fill="none" stroke="black" d="M294.92,-287.88C278.43,-278.64 257.88,-267.13 240.16,-257.21"/>
<polygon fill="black" stroke="black" points="241.63,-254.02 231.2,-252.19 238.21,-260.13 241.63,-254.02"/>
</g>
<!-- 8_; &#45;&gt; ; -->
<g id="node17" class="node">
<title>8_; &#45;&gt; ;</title>
<polygon fill="white" stroke="black" points="358,-252 299,-252 299,-216 358,-216 358,-252"/>
<text text-anchor="middle" x="328.5" y="-230.3" font-family="Times New Roman,serif" font-size="14.00">8_; &#45;&gt; ;</text>
</g>
<!-- 6_IMPRIMIR &#45;&gt; imprimir_nl&#45;&gt;8_; &#45;&gt; ; -->
<g id="edge16" class="edge">
<title>6_IMPRIMIR &#45;&gt; imprimir_nl&#45;&gt;8_; &#45;&gt; ;</title>
<path fill="none" stroke="black" d="M326.24,-287.7C326.57,-279.98 326.97,-270.71 327.34,-262.11"/>
<polygon fill="black" stroke="black" points="330.84,-262.25 327.77,-252.1 323.84,-261.95 330.84,-262.25"/>
</g>
<!-- 13_instruccion &#45;&gt;  -->
<g id="node19" class="node">
<title>13_instruccion &#45;&gt; </title>
<polygon fill="white" stroke="black" points="553,-324 434,-324 434,-288 553,-288 553,-324"/>
<text text-anchor="middle" x="493.5" y="-302.3" font-family="Times New Roman,serif" font-size="14.00">13_instruccion &#45;&gt; </text>
</g>
<!-- 27_case &#45;&gt; ¿1?entonces&#45;&gt;13_instruccion &#45;&gt;  -->
<g id="edge18" class="edge">
<title>27_case &#45;&gt; ¿1?entonces&#45;&gt;13_instruccion &#45;&gt; </title>
<path fill="none" stroke="black" d="M547.7,-359.7C538.9,-351.14 528.12,-340.66 518.5,-331.3"/>
<polygon fill="black" stroke="black" points="520.7,-328.57 511.09,-324.1 515.82,-333.58 520.7,-328.57"/>
</g>
<!-- 25_case &#45;&gt; ¿2?entonces -->
<g id="node23" class="node">
<title>25_case &#45;&gt; ¿2?entonces</title>
<polygon fill="white" stroke="black" points="722,-324 571,-324 571,-288 722,-288 722,-324"/>
<text text-anchor="middle" x="646.5" y="-302.3" font-family="Times New Roman,serif" font-size="14.00">25_case &#45;&gt; ¿2?entonces</text>
</g>
<!-- 27_case &#45;&gt; ¿1?entonces&#45;&gt;25_case &#45;&gt; ¿2?entonces -->
<g id="edge22" class="edge">
<title>27_case &#45;&gt; ¿1?entonces&#45;&gt;25_case &#45;&gt; ¿2?entonces</title>
<path fill="none" stroke="black" d="M585.52,-359.7C595.63,-350.97 608.04,-340.24 619.02,-330.75"/>
<polygon fill="black" stroke="black" points="621.43,-333.29 626.71,-324.1 616.85,-327.99 621.43,-333.29"/>
</g>
<!-- 10_IMPRIMIR &#45;&gt; imprimir_nl -->
<g id="node20" class="node">
<title>10_IMPRIMIR &#45;&gt; imprimir_nl</title>
<polygon fill="white" stroke="black" points="567,-252 380,-252 380,-216 567,-216 567,-252"/>
<text text-anchor="middle" x="473.5" y="-230.3" font-family="Times New Roman,serif" font-size="14.00">10_IMPRIMIR &#45;&gt; imprimir_nl</text>
</g>
<!-- 13_instruccion &#45;&gt; &#45;&gt;10_IMPRIMIR &#45;&gt; imprimir_nl -->
<g id="edge19" class="edge">
<title>13_instruccion &#45;&gt; &#45;&gt;10_IMPRIMIR &#45;&gt; imprimir_nl</title>
<path fill="none" stroke="black" d="M488.56,-287.7C486.33,-279.9 483.65,-270.51 481.17,-261.83"/>
<polygon fill="black" stroke="black" points="484.5,-260.76 478.39,-252.1 477.77,-262.68 484.5,-260.76"/>
</g>
<!-- 11_Valor &#45;&gt; &quot;el valor es 1&quot; -->
<g id="node21" class="node">
<title>11_Valor &#45;&gt; &quot;el valor es 1&quot;</title>
<polygon fill="white" stroke="black" points="430,-180 263,-180 263,-144 430,-144 430,-180"/>
<text text-anchor="middle" x="346.5" y="-158.3" font-family="Times New Roman,serif" font-size="14.00">11_Valor &#45;&gt; &quot;el valor es 1&quot;</text>
</g>
<!-- 10_IMPRIMIR &#45;&gt; imprimir_nl&#45;&gt;11_Valor &#45;&gt; &quot;el valor es 1&quot; -->
<g id="edge20" class="edge">
<title>10_IMPRIMIR &#45;&gt; imprimir_nl&#45;&gt;11_Valor &#45;&gt; &quot;el valor es 1&quot;</title>
<path fill="none" stroke="black" d="M442.43,-215.88C425.67,-206.64 404.79,-195.13 386.8,-185.21"/>
<polygon fill="black" stroke="black" points="388.13,-181.95 377.69,-180.19 384.76,-188.08 388.13,-181.95"/>
</g>
<!-- 12_; &#45;&gt; ; -->
<g id="node22" class="node">
<title>12_; &#45;&gt; ;</title>
<polygon fill="white" stroke="black" points="513,-180 448,-180 448,-144 513,-144 513,-180"/>
<text text-anchor="middle" x="480.5" y="-158.3" font-family="Times New Roman,serif" font-size="14.00">12_; &#45;&gt; ;</text>
</g>
<!-- 10_IMPRIMIR &#45;&gt; imprimir_nl&#45;&gt;12_; &#45;&gt; ; -->
<g id="edge21" class="edge">
<title>10_IMPRIMIR &#45;&gt; imprimir_nl&#45;&gt;12_; &#45;&gt; ;</title>
<path fill="none" stroke="black" d="M475.23,-215.7C476,-207.98 476.93,-198.71 477.79,-190.11"/>
<polygon fill="black" stroke="black" points="481.28,-190.4 478.79,-180.1 474.31,-189.71 481.28,-190.4"/>
</g>
<!-- 17_instruccion &#45;&gt;  -->
<g id="node24" class="node">
<title>17_instruccion &#45;&gt; </title>
<polygon fill="white" stroke="black" points="704,-252 585,-252 585,-216 704,-216 704,-252"/>
<text text-anchor="middle" x="644.5" y="-230.3" font-family="Times New Roman,serif" font-size="14.00">17_instruccion &#45;&gt; </text>
</g>
<!-- 25_case &#45;&gt; ¿2?entonces&#45;&gt;17_instruccion &#45;&gt;  -->
<g id="edge23" class="edge">
<title>25_case &#45;&gt; ¿2?entonces&#45;&gt;17_instruccion &#45;&gt; </title>
<path fill="none" stroke="black" d="M646.01,-287.7C645.79,-279.98 645.52,-270.71 645.27,-262.11"/>
<polygon fill="black" stroke="black" points="648.77,-262 644.99,-252.1 641.78,-262.2 648.77,-262"/>
</g>
<!-- 23_case &#45;&gt; ¿3?entonces -->
<g id="node28" class="node">
<title>23_case &#45;&gt; ¿3?entonces</title>
<polygon fill="white" stroke="black" points="873,-252 722,-252 722,-216 873,-216 873,-252"/>
<text text-anchor="middle" x="797.5" y="-230.3" font-family="Times New Roman,serif" font-size="14.00">23_case &#45;&gt; ¿3?entonces</text>
</g>
<!-- 25_case &#45;&gt; ¿2?entonces&#45;&gt;23_case &#45;&gt; ¿3?entonces -->
<g id="edge27" class="edge">
<title>25_case &#45;&gt; ¿2?entonces&#45;&gt;23_case &#45;&gt; ¿3?entonces</title>
<path fill="none" stroke="black" d="M683.44,-287.88C703.99,-278.35 729.75,-266.41 751.59,-256.28"/>
<polygon fill="black" stroke="black" points="753.08,-259.45 760.68,-252.07 750.14,-253.1 753.08,-259.45"/>
</g>
<!-- 14_IMPRIMIR &#45;&gt; imprimir_nl -->
<g id="node25" class="node">
<title>14_IMPRIMIR &#45;&gt; imprimir_nl</title>
<polygon fill="white" stroke="black" points="731,-180 544,-180 544,-144 731,-144 731,-180"/>
<text text-anchor="middle" x="637.5" y="-158.3" font-family="Times New Roman,serif" font-size="14.00">14_IMPRIMIR &#45;&gt; imprimir_nl</text>
</g>
<!-- 17_instruccion &#45;&gt; &#45;&gt;14_IMPRIMIR &#45;&gt; imprimir_nl -->
<g id="edge24" class="edge">
<title>17_instruccion &#45;&gt; &#45;&gt;14_IMPRIMIR &#45;&gt; imprimir_nl</title>
<path fill="none" stroke="black" d="M642.77,-215.7C642,-207.98 641.07,-198.71 640.21,-190.11"/>
<polygon fill="black" stroke="black" points="643.69,-189.71 639.21,-180.1 636.72,-190.4 643.69,-189.71"/>
</g>
<!-- 15_Valor &#45;&gt; &quot;el valor es 2&quot; -->
<g id="node26" class="node">
<title>15_Valor &#45;&gt; &quot;el valor es 2&quot;</title>
<polygon fill="white" stroke="black" points="600,-108 433,-108 433,-72 600,-72 600,-108"/>
<text text-anchor="middle" x="516.5" y="-86.3" font-family="Times New Roman,serif" font-size="14.00">15_Valor &#45;&gt; &quot;el valor es 2&quot;</text>
</g>
<!-- 14_IMPRIMIR &#45;&gt; imprimir_nl&#45;&gt;15_Valor &#45;&gt; &quot;el valor es 2&quot; -->
<g id="edge25" class="edge">
<title>14_IMPRIMIR &#45;&gt; imprimir_nl&#45;&gt;15_Valor &#45;&gt; &quot;el valor es 2&quot;</title>
<path fill="none" stroke="black" d="M607.9,-143.88C591.93,-134.64 572.04,-123.13 554.89,-113.21"/>
<polygon fill="black" stroke="black" points="556.62,-110.17 546.21,-108.19 553.12,-116.23 556.62,-110.17"/>
</g>
<!-- 16_; &#45;&gt; ; -->
<g id="node27" class="node">
<title>16_; &#45;&gt; ;</title>
<polygon fill="white" stroke="black" points="683,-108 618,-108 618,-72 683,-72 683,-108"/>
<text text-anchor="middle" x="650.5" y="-86.3" font-family="Times New Roman,serif" font-size="14.00">16_; &#45;&gt; ;</text>
</g>
<!-- 14_IMPRIMIR &#45;&gt; imprimir_nl&#45;&gt;16_; &#45;&gt; ; -->
<g id="edge26" class="edge">
<title>14_IMPRIMIR &#45;&gt; imprimir_nl&#45;&gt;16_; &#45;&gt; ;</title>
<path fill="none" stroke="black" d="M640.71,-143.7C642.15,-135.98 643.87,-126.71 645.46,-118.11"/>
<polygon fill="black" stroke="black" points="648.94,-118.58 647.32,-108.1 642.06,-117.3 648.94,-118.58"/>
</g>
<!-- 21_instruccion &#45;&gt;  -->
<g id="node29" class="node">
<title>21_instruccion &#45;&gt; </title>
<polygon fill="white" stroke="black" points="868,-180 749,-180 749,-144 868,-144 868,-180"/>
<text text-anchor="middle" x="808.5" y="-158.3" font-family="Times New Roman,serif" font-size="14.00">21_instruccion &#45;&gt; </text>
</g>
<!-- 23_case &#45;&gt; ¿3?entonces&#45;&gt;21_instruccion &#45;&gt;  -->
<g id="edge28" class="edge">
<title>23_case &#45;&gt; ¿3?entonces&#45;&gt;21_instruccion &#45;&gt; </title>
<path fill="none" stroke="black" d="M800.22,-215.7C801.43,-207.98 802.89,-198.71 804.24,-190.11"/>
<polygon fill="black" stroke="black" points="807.72,-190.53 805.81,-180.1 800.8,-189.44 807.72,-190.53"/>
</g>
<!-- 18_IMPRIMIR &#45;&gt; imprimir_nl -->
<g id="node30" class="node">
<title>18_IMPRIMIR &#45;&gt; imprimir_nl</title>
<polygon fill="white" stroke="black" points="902,-108 715,-108 715,-72 902,-72 902,-108"/>
<text text-anchor="middle" x="808.5" y="-86.3" font-family="Times New Roman,serif" font-size="14.00">18_IMPRIMIR &#45;&gt; imprimir_nl</text>
</g>
<!-- 21_instruccion &#45;&gt; &#45;&gt;18_IMPRIMIR &#45;&gt; imprimir_nl -->
<g id="edge29" class="edge">
<title>21_instruccion &#45;&gt; &#45;&gt;18_IMPRIMIR &#45;&gt; imprimir_nl</title>
<path fill="none" stroke="black" d="M808.5,-143.7C808.5,-135.98 808.5,-126.71 808.5,-118.11"/>
<polygon fill="black" stroke="black" points="812,-118.1 808.5,-108.1 805,-118.1 812,-118.1"/>
</g>
<!-- 19_Valor &#45;&gt; &quot;el valor es 3&quot; -->
<g id="node31" class="node">
<title>19_Valor &#45;&gt; &quot;el valor es 3&quot;</title>
<polygon fill="white" stroke="black" points="825,-36 658,-36 658,0 825,0 825,-36"/>
<text text-anchor="middle" x="741.5" y="-14.3" font-family="Times New Roman,serif" font-size="14.00">19_Valor &#45;&gt; &quot;el valor es 3&quot;</text>
</g>
<!-- 18_IMPRIMIR &#45;&gt; imprimir_nl&#45;&gt;19_Valor &#45;&gt; &quot;el valor es 3&quot; -->
<g id="edge30" class="edge">
<title>18_IMPRIMIR &#45;&gt; imprimir_nl&#45;&gt;19_Valor &#45;&gt; &quot;el valor es 3&quot;</title>
<path fill="none" stroke="black" d="M791.94,-71.7C783.82,-63.22 773.91,-52.86 765.03,-43.58"/>
<polygon fill="black" stroke="black" points="767.31,-40.91 757.87,-36.1 762.26,-45.75 767.31,-40.91"/>
</g>
<!-- 20_; &#45;&gt; ; -->
<g id="node32" class="node">
<title>20_; &#45;&gt; ;</title>
<polygon fill="white" stroke="black" points="908,-36 843,-36 843,0 908,0 908,-36"/>
<text text-anchor="middle" x="875.5" y="-14.3" font-family="Times New Roman,serif" font-size="14.00">20_; &#45;&gt; ;</text>
</g>
<!-- 18_IMPRIMIR &#45;&gt; imprimir_nl&#45;&gt;20_; &#45;&gt; ; -->
<g id="edge31" class="edge">
<title>18_IMPRIMIR &#45;&gt; imprimir_nl&#45;&gt;20_; &#45;&gt; ;</title>
<path fill="none" stroke="black" d="M825.06,-71.7C833.18,-63.22 843.09,-52.86 851.97,-43.58"/>
<polygon fill="black" stroke="black" points="854.74,-45.75 859.13,-36.1 849.69,-40.91 854.74,-45.75"/>
</g>
<!-- 33_instruccion &#45;&gt;  -->
<g id="node34" class="node">
<title>33_instruccion &#45;&gt; </title>
<polygon fill="white" stroke="black" points="980,-396 861,-396 861,-360 980,-360 980,-396"/>
<text text-anchor="middle" x="920.5" y="-374.3" font-family="Times New Roman,serif" font-size="14.00">33_instruccion &#45;&gt; </text>
</g>
<!-- 35_default &#45;&gt; de_lo_contrarioentonces&#45;&gt;33_instruccion &#45;&gt;  -->
<g id="edge33" class="edge">
<title>35_default &#45;&gt; de_lo_contrarioentonces&#45;&gt;33_instruccion &#45;&gt; </title>
<path fill="none" stroke="black" d="M811.73,-431.88C831.08,-422.47 855.27,-410.71 875.93,-400.67"/>
<polygon fill="black" stroke="black" points="877.67,-403.71 885.14,-396.19 874.61,-397.41 877.67,-403.71"/>
</g>
<!-- 30_IMPRIMIR &#45;&gt; imprimir_nl -->
<g id="node35" class="node">
<title>30_IMPRIMIR &#45;&gt; imprimir_nl</title>
<polygon fill="white" stroke="black" points="1085,-324 898,-324 898,-288 1085,-288 1085,-324"/>
<text text-anchor="middle" x="991.5" y="-302.3" font-family="Times New Roman,serif" font-size="14.00">30_IMPRIMIR &#45;&gt; imprimir_nl</text>
</g>
<!-- 33_instruccion &#45;&gt; &#45;&gt;30_IMPRIMIR &#45;&gt; imprimir_nl -->
<g id="edge34" class="edge">
<title>33_instruccion &#45;&gt; &#45;&gt;30_IMPRIMIR &#45;&gt; imprimir_nl</title>
<path fill="none" stroke="black" d="M938.05,-359.7C946.73,-351.14 957.36,-340.66 966.85,-331.3"/>
<polygon fill="black" stroke="black" points="969.49,-333.62 974.15,-324.1 964.57,-328.63 969.49,-333.62"/>
</g>
<!-- 31_Valor &#45;&gt; &quot;Sos la mera verga&quot; -->
<g id="node36" class="node">
<title>31_Valor &#45;&gt; &quot;Sos la mera verga&quot;</title>
<polygon fill="white" stroke="black" points="1091.5,-252 891.5,-252 891.5,-216 1091.5,-216 1091.5,-252"/>
<text text-anchor="middle" x="991.5" y="-230.3" font-family="Times New Roman,serif" font-size="14.00">31_Valor &#45;&gt; &quot;Sos la mera verga&quot;</text>
</g>
<!-- 30_IMPRIMIR &#45;&gt; imprimir_nl&#45;&gt;31_Valor &#45;&gt; &quot;Sos la mera verga&quot; -->
<g id="edge35" class="edge">
<title>30_IMPRIMIR &#45;&gt; imprimir_nl&#45;&gt;31_Valor &#45;&gt; &quot;Sos la mera verga&quot;</title>
<path fill="none" stroke="black" d="M991.5,-287.7C991.5,-279.98 991.5,-270.71 991.5,-262.11"/>
<polygon fill="black" stroke="black" points="995,-262.1 991.5,-252.1 988,-262.1 995,-262.1"/>
</g>
<!-- 32_; &#45;&gt; ; -->
<g id="node37" class="node">
<title>32_; &#45;&gt; ;</title>
<polygon fill="white" stroke="black" points="1175,-252 1110,-252 1110,-216 1175,-216 1175,-252"/>
<text text-anchor="middle" x="1142.5" y="-230.3" font-family="Times New Roman,serif" font-size="14.00">32_; &#45;&gt; ;</text>
</g>
<!-- 30_IMPRIMIR &#45;&gt; imprimir_nl&#45;&gt;32_; &#45;&gt; ; -->
<g id="edge36" class="edge">
<title>30_IMPRIMIR &#45;&gt; imprimir_nl&#45;&gt;32_; &#45;&gt; ;</title>
<path fill="none" stroke="black" d="M1028.44,-287.88C1050.21,-277.78 1077.83,-264.98 1100.44,-254.5"/>
<polygon fill="black" stroke="black" points="1102.19,-257.54 1109.79,-250.16 1099.25,-251.19 1102.19,-257.54"/>
</g>
</g>
</svg>
