<?xml version="1.0" encoding="UTF-8" standalone="no"?>
<!DOCTYPE svg PUBLIC "-//W3C//DTD SVG 1.1//EN"
 "http://www.w3.org/Graphics/SVG/1.1/DTD/svg11.dtd">
<!-- Generated by graphviz version 5.0.1 (20220820.1526)
 -->
<!-- Title: G Pages: 1 -->
<svg width="1135pt" height="620pt"
 viewBox="0.00 0.00 1134.50 620.00" xmlns="http://www.w3.org/2000/svg" xmlns:xlink="http://www.w3.org/1999/xlink">
<g id="graph0" class="graph" transform="scale(1 1) rotate(0) translate(4 616)">
<title>G</title>
<polygon fill="white" stroke="none" points="-4,4 -4,-616 1130.5,-616 1130.5,4 -4,4"/>
<!-- 30_Global &#45;&gt;  -->
<g id="node1" class="node">
<title>30_Global &#45;&gt; </title>
<polygon fill="white" stroke="black" points="620.5,-612 525.5,-612 525.5,-576 620.5,-576 620.5,-612"/>
<text text-anchor="middle" x="573" y="-590.3" font-family="Times New Roman,serif" font-size="14.00">30_Global &#45;&gt; </text>
</g>
<!-- 31_inicio &#45;&gt; inicio -->
<g id="node2" class="node">
<title>31_inicio &#45;&gt; inicio</title>
<polygon fill="white" stroke="black" points="495,-540 377,-540 377,-504 495,-504 495,-540"/>
<text text-anchor="middle" x="436" y="-518.3" font-family="Times New Roman,serif" font-size="14.00">31_inicio &#45;&gt; inicio</text>
</g>
<!-- 30_Global &#45;&gt; &#45;&gt;31_inicio &#45;&gt; inicio -->
<g id="edge1" class="edge">
<title>30_Global &#45;&gt; &#45;&gt;31_inicio &#45;&gt; inicio</title>
<path fill="none" stroke="black" d="M539.49,-575.88C521.16,-566.51 498.26,-554.81 478.67,-544.8"/>
<polygon fill="black" stroke="black" points="480.14,-541.62 469.64,-540.19 476.96,-547.86 480.14,-541.62"/>
</g>
<!-- 29_instruccion &#45;&gt;  -->
<g id="node3" class="node">
<title>29_instruccion &#45;&gt; </title>
<polygon fill="white" stroke="black" points="632.5,-540 513.5,-540 513.5,-504 632.5,-504 632.5,-540"/>
<text text-anchor="middle" x="573" y="-518.3" font-family="Times New Roman,serif" font-size="14.00">29_instruccion &#45;&gt; </text>
</g>
<!-- 30_Global &#45;&gt; &#45;&gt;29_instruccion &#45;&gt;  -->
<g id="edge2" class="edge">
<title>30_Global &#45;&gt; &#45;&gt;29_instruccion &#45;&gt; </title>
<path fill="none" stroke="black" d="M573,-575.7C573,-567.98 573,-558.71 573,-550.11"/>
<polygon fill="black" stroke="black" points="576.5,-550.1 573,-540.1 569.5,-550.1 576.5,-550.1"/>
</g>
<!-- 32_final &#45;&gt; fin -->
<g id="node32" class="node">
<title>32_final &#45;&gt; fin</title>
<polygon fill="white" stroke="black" points="745.5,-540 650.5,-540 650.5,-504 745.5,-504 745.5,-540"/>
<text text-anchor="middle" x="698" y="-518.3" font-family="Times New Roman,serif" font-size="14.00">32_final &#45;&gt; fin</text>
</g>
<!-- 30_Global &#45;&gt; &#45;&gt;32_final &#45;&gt; fin -->
<g id="edge31" class="edge">
<title>30_Global &#45;&gt; &#45;&gt;32_final &#45;&gt; fin</title>
<path fill="none" stroke="black" d="M603.58,-575.88C620.07,-566.64 640.62,-555.13 658.34,-545.21"/>
<polygon fill="black" stroke="black" points="660.29,-548.13 667.3,-540.19 656.87,-542.02 660.29,-548.13"/>
</g>
<!-- 20_METODO &#45;&gt; metodo -->
<g id="node4" class="node">
<title>20_METODO &#45;&gt; metodo</title>
<polygon fill="white" stroke="black" points="516.5,-468 355.5,-468 355.5,-432 516.5,-432 516.5,-468"/>
<text text-anchor="middle" x="436" y="-446.3" font-family="Times New Roman,serif" font-size="14.00">20_METODO &#45;&gt; metodo</text>
</g>
<!-- 29_instruccion &#45;&gt; &#45;&gt;20_METODO &#45;&gt; metodo -->
<g id="edge3" class="edge">
<title>29_instruccion &#45;&gt; &#45;&gt;20_METODO &#45;&gt; metodo</title>
<path fill="none" stroke="black" d="M539.49,-503.88C521.16,-494.51 498.26,-482.81 478.67,-472.8"/>
<polygon fill="black" stroke="black" points="480.14,-469.62 469.64,-468.19 476.96,-475.86 480.14,-469.62"/>
</g>
<!-- 28_instruccion &#45;&gt;  -->
<g id="node27" class="node">
<title>28_instruccion &#45;&gt; </title>
<polygon fill="white" stroke="black" points="770.5,-468 651.5,-468 651.5,-432 770.5,-432 770.5,-468"/>
<text text-anchor="middle" x="711" y="-446.3" font-family="Times New Roman,serif" font-size="14.00">28_instruccion &#45;&gt; </text>
</g>
<!-- 29_instruccion &#45;&gt; &#45;&gt;28_instruccion &#45;&gt;  -->
<g id="edge26" class="edge">
<title>29_instruccion &#45;&gt; &#45;&gt;28_instruccion &#45;&gt; </title>
<path fill="none" stroke="black" d="M606.76,-503.88C625.22,-494.51 648.28,-482.81 668.02,-472.8"/>
<polygon fill="black" stroke="black" points="669.78,-475.83 677.11,-468.19 666.61,-469.59 669.78,-475.83"/>
</g>
<!-- 21_Nombre &#45;&gt; _metodo1_ -->
<g id="node5" class="node">
<title>21_Nombre &#45;&gt; _metodo1_</title>
<polygon fill="white" stroke="black" points="220,-396 52,-396 52,-360 220,-360 220,-396"/>
<text text-anchor="middle" x="136" y="-374.3" font-family="Times New Roman,serif" font-size="14.00">21_Nombre &#45;&gt; _metodo1_</text>
</g>
<!-- 20_METODO &#45;&gt; metodo&#45;&gt;21_Nombre &#45;&gt; _metodo1_ -->
<g id="edge4" class="edge">
<title>20_METODO &#45;&gt; metodo&#45;&gt;21_Nombre &#45;&gt; _metodo1_</title>
<path fill="none" stroke="black" d="M363,-431.97C319.45,-421.8 264.02,-408.87 218.84,-398.33"/>
<polygon fill="black" stroke="black" points="219.61,-394.91 209.07,-396.05 218.01,-401.73 219.61,-394.91"/>
</g>
<!-- 22_parametros &#45;&gt;  -->
<g id="node6" class="node">
<title>22_parametros &#45;&gt; </title>
<polygon fill="white" stroke="black" points="358,-396 238,-396 238,-360 358,-360 358,-396"/>
<text text-anchor="middle" x="298" y="-374.3" font-family="Times New Roman,serif" font-size="14.00">22_parametros &#45;&gt; </text>
</g>
<!-- 20_METODO &#45;&gt; metodo&#45;&gt;22_parametros &#45;&gt;  -->
<g id="edge5" class="edge">
<title>20_METODO &#45;&gt; metodo&#45;&gt;22_parametros &#45;&gt; </title>
<path fill="none" stroke="black" d="M402.24,-431.88C383.78,-422.51 360.72,-410.81 340.98,-400.8"/>
<polygon fill="black" stroke="black" points="342.39,-397.59 331.89,-396.19 339.22,-403.83 342.39,-397.59"/>
</g>
<!-- 19_instruccion &#45;&gt;  -->
<g id="node7" class="node">
<title>19_instruccion &#45;&gt; </title>
<polygon fill="white" stroke="black" points="495.5,-396 376.5,-396 376.5,-360 495.5,-360 495.5,-396"/>
<text text-anchor="middle" x="436" y="-374.3" font-family="Times New Roman,serif" font-size="14.00">19_instruccion &#45;&gt; </text>
</g>
<!-- 20_METODO &#45;&gt; metodo&#45;&gt;19_instruccion &#45;&gt;  -->
<g id="edge6" class="edge">
<title>20_METODO &#45;&gt; metodo&#45;&gt;19_instruccion &#45;&gt; </title>
<path fill="none" stroke="black" d="M436,-431.7C436,-423.98 436,-414.71 436,-406.11"/>
<polygon fill="black" stroke="black" points="439.5,-406.1 436,-396.1 432.5,-406.1 439.5,-406.1"/>
</g>
<!-- 23_FIN_METODO &#45;&gt; fin_metodo -->
<g id="node26" class="node">
<title>23_FIN_METODO &#45;&gt; fin_metodo</title>
<polygon fill="white" stroke="black" points="726,-396 514,-396 514,-360 726,-360 726,-396"/>
<text text-anchor="middle" x="620" y="-374.3" font-family="Times New Roman,serif" font-size="14.00">23_FIN_METODO &#45;&gt; fin_metodo</text>
</g>
<!-- 20_METODO &#45;&gt; metodo&#45;&gt;23_FIN_METODO &#45;&gt; fin_metodo -->
<g id="edge25" class="edge">
<title>20_METODO &#45;&gt; metodo&#45;&gt;23_FIN_METODO &#45;&gt; fin_metodo</title>
<path fill="none" stroke="black" d="M481.01,-431.88C506.5,-422.18 538.57,-409.98 565.48,-399.74"/>
<polygon fill="black" stroke="black" points="567.03,-402.9 575.13,-396.07 564.54,-396.35 567.03,-402.9"/>
</g>
<!-- 1_IMPRIMIR &#45;&gt; imprimir_nl -->
<g id="node8" class="node">
<title>1_IMPRIMIR &#45;&gt; imprimir_nl</title>
<polygon fill="white" stroke="black" points="390,-324 210,-324 210,-288 390,-288 390,-324"/>
<text text-anchor="middle" x="300" y="-302.3" font-family="Times New Roman,serif" font-size="14.00">1_IMPRIMIR &#45;&gt; imprimir_nl</text>
</g>
<!-- 19_instruccion &#45;&gt; &#45;&gt;1_IMPRIMIR &#45;&gt; imprimir_nl -->
<g id="edge7" class="edge">
<title>19_instruccion &#45;&gt; &#45;&gt;1_IMPRIMIR &#45;&gt; imprimir_nl</title>
<path fill="none" stroke="black" d="M402.73,-359.88C384.54,-350.51 361.81,-338.81 342.36,-328.8"/>
<polygon fill="black" stroke="black" points="343.89,-325.65 333.4,-324.19 340.69,-331.88 343.89,-325.65"/>
</g>
<!-- 18_instruccion &#45;&gt;  -->
<g id="node11" class="node">
<title>18_instruccion &#45;&gt; </title>
<polygon fill="white" stroke="black" points="527.5,-324 408.5,-324 408.5,-288 527.5,-288 527.5,-324"/>
<text text-anchor="middle" x="468" y="-302.3" font-family="Times New Roman,serif" font-size="14.00">18_instruccion &#45;&gt; </text>
</g>
<!-- 19_instruccion &#45;&gt; &#45;&gt;18_instruccion &#45;&gt;  -->
<g id="edge10" class="edge">
<title>19_instruccion &#45;&gt; &#45;&gt;18_instruccion &#45;&gt; </title>
<path fill="none" stroke="black" d="M443.91,-359.7C447.55,-351.73 451.95,-342.1 455.99,-333.26"/>
<polygon fill="black" stroke="black" points="459.21,-334.65 460.18,-324.1 452.84,-331.74 459.21,-334.65"/>
</g>
<!-- 2_Valor &#45;&gt; &quot;estamos entrando al metodo 1&quot; -->
<g id="node9" class="node">
<title>2_Valor &#45;&gt; &quot;estamos entrando al metodo 1&quot;</title>
<polygon fill="white" stroke="black" points="262,-252 0,-252 0,-216 262,-216 262,-252"/>
<text text-anchor="middle" x="131" y="-230.3" font-family="Times New Roman,serif" font-size="14.00">2_Valor &#45;&gt; &quot;estamos entrando al metodo 1&quot;</text>
</g>
<!-- 1_IMPRIMIR &#45;&gt; imprimir_nl&#45;&gt;2_Valor &#45;&gt; &quot;estamos entrando al metodo 1&quot; -->
<g id="edge8" class="edge">
<title>1_IMPRIMIR &#45;&gt; imprimir_nl&#45;&gt;2_Valor &#45;&gt; &quot;estamos entrando al metodo 1&quot;</title>
<path fill="none" stroke="black" d="M258.66,-287.88C235.45,-278.26 206.31,-266.19 181.73,-256.01"/>
<polygon fill="black" stroke="black" points="182.79,-252.66 172.21,-252.07 180.11,-259.13 182.79,-252.66"/>
</g>
<!-- 3_; &#45;&gt; ; -->
<g id="node10" class="node">
<title>3_; &#45;&gt; ;</title>
<polygon fill="white" stroke="black" points="339.5,-252 280.5,-252 280.5,-216 339.5,-216 339.5,-252"/>
<text text-anchor="middle" x="310" y="-230.3" font-family="Times New Roman,serif" font-size="14.00">3_; &#45;&gt; ;</text>
</g>
<!-- 1_IMPRIMIR &#45;&gt; imprimir_nl&#45;&gt;3_; &#45;&gt; ; -->
<g id="edge9" class="edge">
<title>1_IMPRIMIR &#45;&gt; imprimir_nl&#45;&gt;3_; &#45;&gt; ;</title>
<path fill="none" stroke="black" d="M302.47,-287.7C303.57,-279.98 304.9,-270.71 306.13,-262.11"/>
<polygon fill="black" stroke="black" points="309.61,-262.5 307.56,-252.1 302.68,-261.51 309.61,-262.5"/>
</g>
<!-- 4_EJECUTAR &#45;&gt; ejecutar -->
<g id="node12" class="node">
<title>4_EJECUTAR &#45;&gt; ejecutar</title>
<polygon fill="white" stroke="black" points="541,-252 377,-252 377,-216 541,-216 541,-252"/>
<text text-anchor="middle" x="459" y="-230.3" font-family="Times New Roman,serif" font-size="14.00">4_EJECUTAR &#45;&gt; ejecutar</text>
</g>
<!-- 18_instruccion &#45;&gt; &#45;&gt;4_EJECUTAR &#45;&gt; ejecutar -->
<g id="edge11" class="edge">
<title>18_instruccion &#45;&gt; &#45;&gt;4_EJECUTAR &#45;&gt; ejecutar</title>
<path fill="none" stroke="black" d="M465.78,-287.7C464.78,-279.98 463.59,-270.71 462.49,-262.11"/>
<polygon fill="black" stroke="black" points="465.95,-261.58 461.2,-252.1 459,-262.47 465.95,-261.58"/>
</g>
<!-- 17_instruccion &#45;&gt;  -->
<g id="node16" class="node">
<title>17_instruccion &#45;&gt; </title>
<polygon fill="white" stroke="black" points="737.5,-252 618.5,-252 618.5,-216 737.5,-216 737.5,-252"/>
<text text-anchor="middle" x="678" y="-230.3" font-family="Times New Roman,serif" font-size="14.00">17_instruccion &#45;&gt; </text>
</g>
<!-- 18_instruccion &#45;&gt; &#45;&gt;17_instruccion &#45;&gt;  -->
<g id="edge15" class="edge">
<title>18_instruccion &#45;&gt; &#45;&gt;17_instruccion &#45;&gt; </title>
<path fill="none" stroke="black" d="M519.1,-287.97C548.57,-278.14 585.81,-265.73 616.83,-255.39"/>
<polygon fill="black" stroke="black" points="618.29,-258.59 626.67,-252.11 616.07,-251.95 618.29,-258.59"/>
</g>
<!-- 5_Nombre &#45;&gt; _potenciaManual_ -->
<g id="node13" class="node">
<title>5_Nombre &#45;&gt; _potenciaManual_</title>
<polygon fill="white" stroke="black" points="285,-180 85,-180 85,-144 285,-144 285,-180"/>
<text text-anchor="middle" x="185" y="-158.3" font-family="Times New Roman,serif" font-size="14.00">5_Nombre &#45;&gt; _potenciaManual_</text>
</g>
<!-- 4_EJECUTAR &#45;&gt; ejecutar&#45;&gt;5_Nombre &#45;&gt; _potenciaManual_ -->
<g id="edge12" class="edge">
<title>4_EJECUTAR &#45;&gt; ejecutar&#45;&gt;5_Nombre &#45;&gt; _potenciaManual_</title>
<path fill="none" stroke="black" d="M392.32,-215.97C352.87,-205.89 302.75,-193.08 261.67,-182.59"/>
<polygon fill="black" stroke="black" points="262.53,-179.2 251.98,-180.11 260.8,-185.98 262.53,-179.2"/>
</g>
<!-- 6_parametros &#45;&gt; (3*1+4/2,3+2) -->
<g id="node14" class="node">
<title>6_parametros &#45;&gt; (3*1+4/2,3+2)</title>
<polygon fill="white" stroke="black" points="497,-180 303,-180 303,-144 497,-144 497,-180"/>
<text text-anchor="middle" x="400" y="-158.3" font-family="Times New Roman,serif" font-size="14.00">6_parametros &#45;&gt; (3*1+4/2,3+2)</text>
</g>
<!-- 4_EJECUTAR &#45;&gt; ejecutar&#45;&gt;6_parametros &#45;&gt; (3*1+4/2,3+2) -->
<g id="edge13" class="edge">
<title>4_EJECUTAR &#45;&gt; ejecutar&#45;&gt;6_parametros &#45;&gt; (3*1+4/2,3+2)</title>
<path fill="none" stroke="black" d="M444.42,-215.7C437.34,-207.3 428.72,-197.07 420.95,-187.86"/>
<polygon fill="black" stroke="black" points="423.54,-185.49 414.42,-180.1 418.19,-190.01 423.54,-185.49"/>
</g>
<!-- 7_; &#45;&gt; ; -->
<g id="node15" class="node">
<title>7_; &#45;&gt; ;</title>
<polygon fill="white" stroke="black" points="574.5,-180 515.5,-180 515.5,-144 574.5,-144 574.5,-180"/>
<text text-anchor="middle" x="545" y="-158.3" font-family="Times New Roman,serif" font-size="14.00">7_; &#45;&gt; ;</text>
</g>
<!-- 4_EJECUTAR &#45;&gt; ejecutar&#45;&gt;7_; &#45;&gt; ; -->
<g id="edge14" class="edge">
<title>4_EJECUTAR &#45;&gt; ejecutar&#45;&gt;7_; &#45;&gt; ;</title>
<path fill="none" stroke="black" d="M480.26,-215.7C491.09,-206.88 504.42,-196.03 516.16,-186.47"/>
<polygon fill="black" stroke="black" points="518.44,-189.13 523.99,-180.1 514.02,-183.7 518.44,-189.13"/>
</g>
<!-- 12_IMPRIMIR &#45;&gt; imprimir -->
<g id="node17" class="node">
<title>12_IMPRIMIR &#45;&gt; imprimir</title>
<polygon fill="white" stroke="black" points="763,-180 593,-180 593,-144 763,-144 763,-180"/>
<text text-anchor="middle" x="678" y="-158.3" font-family="Times New Roman,serif" font-size="14.00">12_IMPRIMIR &#45;&gt; imprimir</text>
</g>
<!-- 17_instruccion &#45;&gt; &#45;&gt;12_IMPRIMIR &#45;&gt; imprimir -->
<g id="edge16" class="edge">
<title>17_instruccion &#45;&gt; &#45;&gt;12_IMPRIMIR &#45;&gt; imprimir</title>
<path fill="none" stroke="black" d="M678,-215.7C678,-207.98 678,-198.71 678,-190.11"/>
<polygon fill="black" stroke="black" points="681.5,-190.1 678,-180.1 674.5,-190.1 681.5,-190.1"/>
</g>
<!-- 16_instruccion &#45;&gt;  -->
<g id="node22" class="node">
<title>16_instruccion &#45;&gt; </title>
<polygon fill="white" stroke="black" points="949.5,-180 830.5,-180 830.5,-144 949.5,-144 949.5,-180"/>
<text text-anchor="middle" x="890" y="-158.3" font-family="Times New Roman,serif" font-size="14.00">16_instruccion &#45;&gt; </text>
</g>
<!-- 17_instruccion &#45;&gt; &#45;&gt;16_instruccion &#45;&gt;  -->
<g id="edge21" class="edge">
<title>17_instruccion &#45;&gt; &#45;&gt;16_instruccion &#45;&gt; </title>
<path fill="none" stroke="black" d="M729.59,-215.97C759.47,-206.1 797.26,-193.62 828.66,-183.25"/>
<polygon fill="black" stroke="black" points="829.78,-186.57 838.18,-180.11 827.59,-179.92 829.78,-186.57"/>
</g>
<!-- 8_EJECUTAR &#45;&gt; ejecutar -->
<g id="node18" class="node">
<title>8_EJECUTAR &#45;&gt; ejecutar</title>
<polygon fill="white" stroke="black" points="735,-108 571,-108 571,-72 735,-72 735,-108"/>
<text text-anchor="middle" x="653" y="-86.3" font-family="Times New Roman,serif" font-size="14.00">8_EJECUTAR &#45;&gt; ejecutar</text>
</g>
<!-- 12_IMPRIMIR &#45;&gt; imprimir&#45;&gt;8_EJECUTAR &#45;&gt; ejecutar -->
<g id="edge17" class="edge">
<title>12_IMPRIMIR &#45;&gt; imprimir&#45;&gt;8_EJECUTAR &#45;&gt; ejecutar</title>
<path fill="none" stroke="black" d="M671.82,-143.7C669,-135.81 665.61,-126.3 662.48,-117.55"/>
<polygon fill="black" stroke="black" points="665.77,-116.34 659.11,-108.1 659.18,-118.7 665.77,-116.34"/>
</g>
<!-- 9_Nombre &#45;&gt; _potenciaFuncion_ -->
<g id="node19" class="node">
<title>9_Nombre &#45;&gt; _potenciaFuncion_</title>
<polygon fill="white" stroke="black" points="466.5,-36 261.5,-36 261.5,0 466.5,0 466.5,-36"/>
<text text-anchor="middle" x="364" y="-14.3" font-family="Times New Roman,serif" font-size="14.00">9_Nombre &#45;&gt; _potenciaFuncion_</text>
</g>
<!-- 8_EJECUTAR &#45;&gt; ejecutar&#45;&gt;9_Nombre &#45;&gt; _potenciaFuncion_ -->
<g id="edge18" class="edge">
<title>8_EJECUTAR &#45;&gt; ejecutar&#45;&gt;9_Nombre &#45;&gt; _potenciaFuncion_</title>
<path fill="none" stroke="black" d="M582.67,-71.97C540.9,-61.85 487.78,-48.98 444.35,-38.46"/>
<polygon fill="black" stroke="black" points="444.94,-35 434.39,-36.05 443.29,-41.81 444.94,-35"/>
</g>
<!-- 10_parametros &#45;&gt; (3*1+4/2,3+2) -->
<g id="node20" class="node">
<title>10_parametros &#45;&gt; (3*1+4/2,3+2)</title>
<polygon fill="white" stroke="black" points="685,-36 485,-36 485,0 685,0 685,-36"/>
<text text-anchor="middle" x="585" y="-14.3" font-family="Times New Roman,serif" font-size="14.00">10_parametros &#45;&gt; (3*1+4/2,3+2)</text>
</g>
<!-- 8_EJECUTAR &#45;&gt; ejecutar&#45;&gt;10_parametros &#45;&gt; (3*1+4/2,3+2) -->
<g id="edge19" class="edge">
<title>8_EJECUTAR &#45;&gt; ejecutar&#45;&gt;10_parametros &#45;&gt; (3*1+4/2,3+2)</title>
<path fill="none" stroke="black" d="M636.19,-71.7C627.87,-63.14 617.69,-52.66 608.61,-43.3"/>
<polygon fill="black" stroke="black" points="611.09,-40.84 601.62,-36.1 606.07,-45.72 611.09,-40.84"/>
</g>
<!-- 11_; &#45;&gt; ; -->
<g id="node21" class="node">
<title>11_; &#45;&gt; ;</title>
<polygon fill="white" stroke="black" points="768.5,-36 703.5,-36 703.5,0 768.5,0 768.5,-36"/>
<text text-anchor="middle" x="736" y="-14.3" font-family="Times New Roman,serif" font-size="14.00">11_; &#45;&gt; ;</text>
</g>
<!-- 8_EJECUTAR &#45;&gt; ejecutar&#45;&gt;11_; &#45;&gt; ; -->
<g id="edge20" class="edge">
<title>8_EJECUTAR &#45;&gt; ejecutar&#45;&gt;11_; &#45;&gt; ;</title>
<path fill="none" stroke="black" d="M673.52,-71.7C683.87,-62.97 696.59,-52.24 707.84,-42.75"/>
<polygon fill="black" stroke="black" points="710.33,-45.23 715.72,-36.1 705.82,-39.88 710.33,-45.23"/>
</g>
<!-- 13_IMPRIMIR &#45;&gt; imprimir_nl -->
<g id="node23" class="node">
<title>13_IMPRIMIR &#45;&gt; imprimir_nl</title>
<polygon fill="white" stroke="black" points="1008.5,-108 821.5,-108 821.5,-72 1008.5,-72 1008.5,-108"/>
<text text-anchor="middle" x="915" y="-86.3" font-family="Times New Roman,serif" font-size="14.00">13_IMPRIMIR &#45;&gt; imprimir_nl</text>
</g>
<!-- 16_instruccion &#45;&gt; &#45;&gt;13_IMPRIMIR &#45;&gt; imprimir_nl -->
<g id="edge22" class="edge">
<title>16_instruccion &#45;&gt; &#45;&gt;13_IMPRIMIR &#45;&gt; imprimir_nl</title>
<path fill="none" stroke="black" d="M896.18,-143.7C899,-135.81 902.39,-126.3 905.52,-117.55"/>
<polygon fill="black" stroke="black" points="908.82,-118.7 908.89,-108.1 902.23,-116.34 908.82,-118.7"/>
</g>
<!-- 14_Valor &#45;&gt; &quot; Esta es la potencia Funcion&quot; -->
<g id="node24" class="node">
<title>14_Valor &#45;&gt; &quot; Esta es la potencia Funcion&quot;</title>
<polygon fill="white" stroke="black" points="1043.5,-36 786.5,-36 786.5,0 1043.5,0 1043.5,-36"/>
<text text-anchor="middle" x="915" y="-14.3" font-family="Times New Roman,serif" font-size="14.00">14_Valor &#45;&gt; &quot; Esta es la potencia Funcion&quot;</text>
</g>
<!-- 13_IMPRIMIR &#45;&gt; imprimir_nl&#45;&gt;14_Valor &#45;&gt; &quot; Esta es la potencia Funcion&quot; -->
<g id="edge23" class="edge">
<title>13_IMPRIMIR &#45;&gt; imprimir_nl&#45;&gt;14_Valor &#45;&gt; &quot; Esta es la potencia Funcion&quot;</title>
<path fill="none" stroke="black" d="M915,-71.7C915,-63.98 915,-54.71 915,-46.11"/>
<polygon fill="black" stroke="black" points="918.5,-46.1 915,-36.1 911.5,-46.1 918.5,-46.1"/>
</g>
<!-- 15_; &#45;&gt; ; -->
<g id="node25" class="node">
<title>15_; &#45;&gt; ;</title>
<polygon fill="white" stroke="black" points="1126.5,-36 1061.5,-36 1061.5,0 1126.5,0 1126.5,-36"/>
<text text-anchor="middle" x="1094" y="-14.3" font-family="Times New Roman,serif" font-size="14.00">15_; &#45;&gt; ;</text>
</g>
<!-- 13_IMPRIMIR &#45;&gt; imprimir_nl&#45;&gt;15_; &#45;&gt; ; -->
<g id="edge24" class="edge">
<title>13_IMPRIMIR &#45;&gt; imprimir_nl&#45;&gt;15_; &#45;&gt; ;</title>
<path fill="none" stroke="black" d="M960.18,-71.99C984.97,-62.58 1016.45,-50.5 1051.79,-36.44"/>
<polygon fill="black" stroke="black" points="1053.37,-39.58 1061.36,-32.63 1050.77,-33.08 1053.37,-39.58"/>
</g>
<!-- 24_EJECUTAR &#45;&gt; ejecutar -->
<g id="node28" class="node">
<title>24_EJECUTAR &#45;&gt; ejecutar</title>
<polygon fill="white" stroke="black" points="914,-396 744,-396 744,-360 914,-360 914,-396"/>
<text text-anchor="middle" x="829" y="-374.3" font-family="Times New Roman,serif" font-size="14.00">24_EJECUTAR &#45;&gt; ejecutar</text>
</g>
<!-- 28_instruccion &#45;&gt; &#45;&gt;24_EJECUTAR &#45;&gt; ejecutar -->
<g id="edge27" class="edge">
<title>28_instruccion &#45;&gt; &#45;&gt;24_EJECUTAR &#45;&gt; ejecutar</title>
<path fill="none" stroke="black" d="M739.87,-431.88C755.29,-422.72 774.48,-411.34 791.1,-401.48"/>
<polygon fill="black" stroke="black" points="793.21,-404.3 800.02,-396.19 789.64,-398.28 793.21,-404.3"/>
</g>
<!-- 25_Nombre &#45;&gt; _metodo1_ -->
<g id="node29" class="node">
<title>25_Nombre &#45;&gt; _metodo1_</title>
<polygon fill="white" stroke="black" points="746,-324 578,-324 578,-288 746,-288 746,-324"/>
<text text-anchor="middle" x="662" y="-302.3" font-family="Times New Roman,serif" font-size="14.00">25_Nombre &#45;&gt; _metodo1_</text>
</g>
<!-- 24_EJECUTAR &#45;&gt; ejecutar&#45;&gt;25_Nombre &#45;&gt; _metodo1_ -->
<g id="edge28" class="edge">
<title>24_EJECUTAR &#45;&gt; ejecutar&#45;&gt;25_Nombre &#45;&gt; _metodo1_</title>
<path fill="none" stroke="black" d="M788.15,-359.88C765.22,-350.26 736.42,-338.19 712.13,-328.01"/>
<polygon fill="black" stroke="black" points="713.3,-324.71 702.72,-324.07 710.59,-331.16 713.3,-324.71"/>
</g>
<!-- 26_parametros &#45;&gt; () -->
<g id="node30" class="node">
<title>26_parametros &#45;&gt; ()</title>
<polygon fill="white" stroke="black" points="893.5,-324 764.5,-324 764.5,-288 893.5,-288 893.5,-324"/>
<text text-anchor="middle" x="829" y="-302.3" font-family="Times New Roman,serif" font-size="14.00">26_parametros &#45;&gt; ()</text>
</g>
<!-- 24_EJECUTAR &#45;&gt; ejecutar&#45;&gt;26_parametros &#45;&gt; () -->
<g id="edge29" class="edge">
<title>24_EJECUTAR &#45;&gt; ejecutar&#45;&gt;26_parametros &#45;&gt; ()</title>
<path fill="none" stroke="black" d="M829,-359.7C829,-351.98 829,-342.71 829,-334.11"/>
<polygon fill="black" stroke="black" points="832.5,-334.1 829,-324.1 825.5,-334.1 832.5,-334.1"/>
</g>
<!-- 27_; &#45;&gt; ; -->
<g id="node31" class="node">
<title>27_; &#45;&gt; ;</title>
<polygon fill="white" stroke="black" points="976.5,-324 911.5,-324 911.5,-288 976.5,-288 976.5,-324"/>
<text text-anchor="middle" x="944" y="-302.3" font-family="Times New Roman,serif" font-size="14.00">27_; &#45;&gt; ;</text>
</g>
<!-- 24_EJECUTAR &#45;&gt; ejecutar&#45;&gt;27_; &#45;&gt; ; -->
<g id="edge30" class="edge">
<title>24_EJECUTAR &#45;&gt; ejecutar&#45;&gt;27_; &#45;&gt; ;</title>
<path fill="none" stroke="black" d="M857.13,-359.88C872.17,-350.72 890.87,-339.34 907.06,-329.48"/>
<polygon fill="black" stroke="black" points="909.04,-332.38 915.76,-324.19 905.4,-326.4 909.04,-332.38"/>
</g>
</g>
</svg>
